<?xml version="1.0" encoding="UTF-8" standalone="no"?>
<!DOCTYPE svg PUBLIC "-//W3C//DTD SVG 1.1//EN"
 "http://www.w3.org/Graphics/SVG/1.1/DTD/svg11.dtd">
<!-- Generated by graphviz version 2.38.0 (20140413.2041)
 -->
<!-- Title: G Pages: 1 -->
<svg width="137pt" height="127pt"
 viewBox="0.00 0.00 137.00 127.00" xmlns="http://www.w3.org/2000/svg" xmlns:xlink="http://www.w3.org/1999/xlink">
<g id="graph0" class="graph" transform="scale(1 1) rotate(0) translate(4 123)">
<title>G</title>
<polygon fill="white" stroke="none" points="-4,4 -4,-123 133,-123 133,4 -4,4"/>
<!-- jkphl/html&#45;formatter -->
<g id="node1" class="node"><title>jkphl/html&#45;formatter</title>
<path fill="#eeeeee" stroke="black" stroke-width="2" d="M117,-119C117,-119 12,-119 12,-119 6,-119 0,-113 0,-107 0,-107 0,-95 0,-95 0,-89 6,-83 12,-83 12,-83 117,-83 117,-83 123,-83 129,-89 129,-95 129,-95 129,-107 129,-107 129,-113 123,-119 117,-119"/>
<text text-anchor="middle" x="64.5" y="-97.3" font-family="Times,serif" font-size="14.00" fill="#314b5f">jkphl/html&#45;formatter</text>
</g>
<!-- php -->
<g id="node2" class="node"><title>php</title>
<path fill="#eeeeee" stroke="black" d="M79.5,-36C79.5,-36 49.5,-36 49.5,-36 43.5,-36 37.5,-30 37.5,-24 37.5,-24 37.5,-12 37.5,-12 37.5,-6 43.5,-0 49.5,-0 49.5,-0 79.5,-0 79.5,-0 85.5,-0 91.5,-6 91.5,-12 91.5,-12 91.5,-24 91.5,-24 91.5,-30 85.5,-36 79.5,-36"/>
<text text-anchor="middle" x="64.5" y="-14.3" font-family="Times,serif" font-size="14.00" fill="#314b5f">php</text>
</g>
<!-- jkphl/html&#45;formatter&#45;&gt;php -->
<g id="edge1" class="edge"><title>jkphl/html&#45;formatter&#45;&gt;php</title>
<path fill="none" stroke="#1a2833" d="M64.5,-82.822C64.5,-72.1903 64.5,-58.306 64.5,-46.2035"/>
<polygon fill="#1a2833" stroke="#1a2833" points="68.0001,-46.1532 64.5,-36.1533 61.0001,-46.1533 68.0001,-46.1532"/>
<text text-anchor="middle" x="77" y="-57" font-family="Times,serif" font-size="10.00" fill="#767676">&gt;=5.6</text>
</g>
</g>
</svg>
